<svg xmlns="http://www.w3.org/2000/svg" viewBox="0 0 64 64" width="64" height="64" role="img" aria-label="power-manage">
  <circle cx="32" cy="32" r="32" fill="#D946EF"></circle>
  <path d="M 23.00 27.50 A 5.5 5.5 0 0 0 23.00 38.50 L 23.00 43.00 A 10 10 0 0 1 22.22 42.97 L 18.97 46.51 A 14.1 14.1 0 0 1 16.29 45.40 L 16.51 40.60 A 10 10 0 0 1 15.40 39.49 L 10.60 39.71 A 14.1 14.1 0 0 1 9.49 37.03 L 13.03 33.78 A 10 10 0 0 1 13.03 32.22 L 9.49 28.97 A 14.1 14.1 0 0 1 10.60 26.29 L 15.40 26.51 A 10 10 0 0 1 16.51 25.40 L 16.29 20.60 A 14.1 14.1 0 0 1 18.97 19.49 L 22.22 23.03 A 10 10 0 0 1 23.00 23.00 Z" fill="#FFFFFF"></path>
  <path d="M23 25 L31 33 L23 41" fill="none" stroke="#FFFFFF" stroke-width="5" stroke-linecap="round" stroke-linejoin="round"></path>
  <path d="M35 41 L45 41" fill="none" stroke="#FFFFFF" stroke-width="5" stroke-linecap="round"></path>
</svg>