<svg xmlns="http://www.w3.org/2000/svg" viewBox="0 0 64 64" width="64" height="64" role="img" aria-label="power-manage">
  <circle cx="32" cy="32" r="32" fill="#6366F1"></circle>
  <g fill="none" stroke="#FFFFFF" stroke-width="4.4" stroke-linecap="round" stroke-linejoin="round">
    <path d="M28 54.66 A23 23 0 1 1 36 54.66"></path>
    <path d="M42.6 57.1 L36 54.66 L41.4 50.2"></path>
  </g>
  <g transform="translate(17,17) scale(1.25)">
    <path d="M14.7 6.3a1 1 0 0 0 0 1.4l1.6 1.6a1 1 0 0 0 1.4 0l3.77-3.77a6 6 0 0 1-7.94 7.94l-6.91 6.91a2.12 2.12 0 0 1-3-3l6.91-6.91a6 6 0 0 1 7.94-7.94l-3.76 3.76z" fill="#FFFFFF"></path>
  </g>
</svg>